 <svg aria-hidden="true" style="position: absolute; width: 0; height: 0; overflow: hidden;" version="1.1" xmlns="http://www.w3.org/2000/svg" xmlns:xlink="http://www.w3.org/1999/xlink">
<defs>
<symbol id="icon-Vector" viewBox="0 0 32 32">
<path fill="#fff" style="fill: var(--color1, #fff)" d="M22.92 20.637l8.608 8.608c0.302 0.303 0.472 0.713 0.472 1.141s-0.17 0.838-0.473 1.141c-0.303 0.302-0.713 0.472-1.141 0.472s-0.838-0.17-1.141-0.473l-8.608-8.608c-2.573 1.993-5.809 2.931-9.049 2.623s-6.241-1.839-8.393-4.281c-2.151-2.442-3.292-5.612-3.189-8.865s1.441-6.345 3.742-8.646c2.301-2.301 5.393-3.64 8.646-3.742s6.423 1.038 8.865 3.189c2.442 2.151 3.973 5.153 4.281 8.393s-0.63 6.476-2.623 9.049h0.002zM12.801 22.399c2.546 0 4.988-1.011 6.788-2.812s2.812-4.242 2.812-6.788-1.011-4.988-2.812-6.788c-1.8-1.8-4.242-2.812-6.788-2.812s-4.988 1.011-6.788 2.812c-1.8 1.8-2.812 4.242-2.812 6.788s1.011 4.988 2.812 6.788c1.8 1.8 4.242 2.812 6.788 2.812z"></path>
</symbol>
</defs>
</svg>
