 <svg aria-hidden="true" style="position: absolute; width: 0; height: 0; overflow: hidden;" version="1.1" xmlns="http://www.w3.org/2000/svg" xmlns:xlink="http://www.w3.org/1999/xlink">
<defs>
<symbol id="icon-Vector" viewBox="0 0 32 32">
<path fill="#fff" style="fill: var(--color1, #fff)" d="M22.92 20.637l8.608 8.608c0.302 0.303 0.472 0.713 0.472 1.141s-0.17 0.838-0.473 1.141c-0.303 0.302-0.713 0.472-1.141 0.472s-0.838-0.17-1.141-0.473l-8.608-8.608c-2.573 1.993-5.809 2.931-9.049 2.623s-6.241-1.839-8.393-4.281c-2.151-2.442-3.292-5.612-3.189-8.865s1.441-6.345 3.742-8.646c2.301-2.301 5.393-3.64 8.646-3.742s6.423 1.038 8.865 3.189c2.442 2.151 3.973 5.153 4.281 8.393s-0.63 6.476-2.623 9.049h0.002zM12.801 22.399c2.546 0 4.988-1.011 6.788-2.812s2.812-4.242 2.812-6.788-1.011-4.988-2.812-6.788c-1.8-1.8-4.242-2.812-6.788-2.812s-4.988 1.011-6.788 2.812c-1.8 1.8-2.812 4.242-2.812 6.788s1.011 4.988 2.812 6.788c1.8 1.8 4.242 2.812 6.788 2.812z"></path>
</symbol>
<symbol id="icon-facebook" viewBox="0 0 32 32"><path  d="M21.329 5.313h2.921V.225C23.746.156 22.013 0 19.994 0c-4.212 0-7.097 2.649-7.097 7.519V12H8.249v5.688h4.648V32h5.699V17.689h4.46l.708-5.688h-5.169V8.082c.001-1.644.444-2.769 2.735-2.769z"/></symbol>
<symbol id="icon-instagram" viewBox="0 0 32 32"><path  d="M31.969 9.408c-.075-1.7-.35-2.869-.744-3.882a7.806 7.806 0 00-1.851-2.838A7.867 7.867 0 0026.542.844C25.523.45 24.36.175 22.66.1 20.947.019 20.403 0 16.059 0s-4.888.019-6.595.094c-1.7.075-2.869.35-3.882.744a7.803 7.803 0 00-2.838 1.85A7.867 7.867 0 00.9 5.52C.506 6.539.231 7.702.156 9.402c-.081 1.713-.1 2.257-.1 6.601s.019 4.888.094 6.595c.075 1.7.35 2.869.744 3.882a7.895 7.895 0 001.85 2.838 7.867 7.867 0 002.832 1.844c1.019.394 2.182.669 3.882.744 1.706.075 2.25.094 6.595.094s4.888-.019 6.595-.094c1.7-.075 2.869-.35 3.882-.744a8.184 8.184 0 004.682-4.682c.394-1.019.669-2.182.744-3.882.075-1.707.094-2.251.094-6.595s-.006-4.888-.081-6.595zm-2.882 13.065c-.069 1.563-.331 2.407-.55 2.969a5.31 5.31 0 01-

</defs>
</svg>
